<?xml version="1.0" encoding="UTF-8" standalone="no"?>
<!-- Created with Inkscape (http://www.inkscape.org/) -->

<svg
   width="213.12335mm"
   height="213.13591mm"
   viewBox="0 0 213.12335 213.13591"
   version="1.1"
   id="svg1"
   xml:space="preserve"
   inkscape:version="1.4 (e7c3feb100, 2024-10-09)"
   sodipodi:docname="inanna.svg"
   inkscape:export-filename="inanna.png"
   inkscape:export-xdpi="96"
   inkscape:export-ydpi="96"
   xmlns:inkscape="http://www.inkscape.org/namespaces/inkscape"
   xmlns:sodipodi="http://sodipodi.sourceforge.net/DTD/sodipodi-0.dtd"
   xmlns="http://www.w3.org/2000/svg"
   xmlns:svg="http://www.w3.org/2000/svg"><sodipodi:namedview
     id="namedview1"
     pagecolor="#505050"
     bordercolor="#ffffff"
     borderopacity="1"
     inkscape:showpageshadow="0"
     inkscape:pageopacity="0"
     inkscape:pagecheckerboard="1"
     inkscape:deskcolor="#d1d1d1"
     inkscape:document-units="mm"
     inkscape:zoom="0.53000764"
     inkscape:cx="575.4634"
     inkscape:cy="220.75153"
     inkscape:window-width="1920"
     inkscape:window-height="947"
     inkscape:window-x="0"
     inkscape:window-y="32"
     inkscape:window-maximized="1"
     inkscape:current-layer="layer1" /><defs
     id="defs1" /><g
     inkscape:label="Layer 1"
     inkscape:groupmode="layer"
     id="layer1"
     transform="translate(1.5567829,-113.86194)"><path
       style="fill:#000000;fill-opacity:1;stroke:#000000;stroke-width:4;stroke-dasharray:none;stroke-opacity:1"
       d="M 95.690725,324.72251 C 75.247331,322.78469 55.94891,315.08773 40.260518,302.61479 29.104518,293.74529 20.670079,283.8334 13.549221,271.22452 -0.98947722,245.4809 -3.5954907,213.27092 6.5775144,185.05516 11.885507,170.33296 19.903132,157.7558 31.121134,146.55386 c 7.714856,-7.70381 14.645785,-12.89758 24.218208,-18.14818 21.904777,-12.01507 48.773558,-15.61773 73.424298,-9.845 17.24133,4.03759 33.04423,12.26404 46.159,24.0288 3.07898,2.76203 4.25738,3.92362 6.84459,6.74693 15.21253,16.60077 24.03078,35.57496 27.17526,58.47292 0.58673,4.27254 0.80948,16.09372 0.39695,21.06547 -2.25279,27.14991 -14.67559,51.96836 -35.06747,70.05829 -4.64866,4.12389 -11.57902,9.09994 -17.06562,12.25325 -12.9498,7.44261 -26.96673,11.90886 -42.17197,13.43737 -4.28417,0.43067 -15.251607,0.48669 -19.343655,0.0988 z m 7.974025,-3.34078 c -0.20567,-0.40019 -1.3869,-3.22792 -2.62497,-6.28386 -1.238065,-3.05593 -5.253142,-12.87859 -8.922393,-21.82812 -3.669251,-8.94953 -7.078275,-17.27728 -7.57561,-18.50611 -0.497334,-1.22883 -0.944965,-2.27496 -0.994734,-2.32473 -0.04977,-0.0498 -5.672176,2.2507 -12.494237,5.11214 -6.82206,2.86145 -13.088356,5.48515 -13.925101,5.83046 -0.836744,0.3453 -2.205963,0.91001 -3.042708,1.25491 -0.836745,0.3449 -4.20026,1.7556 -7.474479,3.13489 -3.274218,1.37929 -7.469958,3.14019 -9.323865,3.91311 -2.86852,1.19593 -3.322475,1.46347 -3.046803,1.79564 0.5704,0.68729 7.401356,6.49211 9.592543,8.15157 16.571206,12.54992 37.988613,20.09555 58.016687,20.44004 l 2.18961,0.0377 z m 8.98703,0.45254 c 20.0278,-1.61464 38.5305,-8.65577 54.07957,-20.57976 3.68552,-2.82629 9.45616,-7.90186 9.21474,-8.10484 -0.0476,-0.0401 -0.35141,-0.21055 -0.67504,-0.37887 -0.51686,-0.26883 -28.19641,-11.90546 -36.71783,-15.43638 -1.74625,-0.72358 -3.82984,-1.58709 -4.63021,-1.91893 -0.80036,-0.33183 -2.75271,-1.15334 -4.33856,-1.82558 -1.58584,-0.67224 -2.91419,-1.22225 -2.95187,-1.22225 -0.0704,0 -0.7751,1.66951 -2.84777,6.74688 -0.65345,1.60073 -1.92659,4.69635 -2.8292,6.87917 -0.90261,2.18281 -2.38773,5.81421 -3.30027,8.06979 -1.54015,3.80689 -10.16468,24.82042 -11.10355,27.05364 l -0.41713,0.99219 h 1.55263 c 0.85395,0 3.08797,-0.12378 4.96449,-0.27506 z m -6.72594,-7.06713 c 0.38936,-0.98226 2.80966,-6.90562 5.37843,-13.16302 2.56878,-6.25739 5.86096,-14.29411 7.31595,-17.85937 1.455,-3.56526 3.81963,-9.33979 5.25474,-12.83229 6.12524,-14.9065 7.67014,-18.73799 7.58832,-18.81981 -0.0477,-0.0477 -0.85321,0.48643 -1.79005,1.18694 -5.01865,3.75259 -10.26721,6.10236 -16.7411,7.49495 -2.27486,0.48934 -3.50485,0.57667 -7.98099,0.56666 -4.63992,-0.0104 -5.666418,-0.0937 -8.334373,-0.67664 -6.175666,-1.34929 -12.538758,-4.35477 -17.197916,-8.12306 -0.843772,-0.68244 -1.154161,-0.69102 -0.796115,-0.022 0.15446,0.28862 1.631586,3.83072 3.282502,7.87136 4.986135,12.20361 11.695275,28.59424 14.974466,36.58306 1.70237,4.14735 4.201346,10.2493 5.553286,13.5599 1.35194,3.3106 2.53161,6.01927 2.62149,6.01927 0.0899,0 0.48199,-0.80367 0.87136,-1.78594 z m 76.58767,-28.50885 c 14.22293,-16.9977 22.12606,-36.24072 23.89485,-58.18061 0.37913,-4.70262 0.36267,-6.60317 -0.0557,-6.42869 -1.96242,0.81849 -10.85574,4.46397 -24.27552,9.95083 -8.94953,3.65915 -16.92672,6.932 -17.72708,7.27301 -0.80037,0.34102 -2.73409,1.141 -4.29717,1.77774 -1.56308,0.63675 -2.843,1.29472 -2.84427,1.46217 -0.002,0.29653 1.75185,4.60056 5.15961,12.66013 0.92294,2.18281 3.8456,9.14797 6.4948,15.47813 2.6492,6.33015 5.4657,13.05718 6.25889,14.94896 0.79319,1.89177 1.69245,4.10151 1.99835,4.91054 l 0.55618,1.47096 1.64364,-1.73554 c 0.904,-0.95455 2.34103,-2.56899 3.19338,-3.58763 z m -149.925908,4.86173 c 0,-0.1637 0.292397,-0.96738 0.649771,-1.78594 0.357374,-0.81856 4.060543,-9.64407 8.229263,-19.61225 4.168721,-9.96818 8.400816,-20.06823 9.404655,-22.44455 1.003839,-2.37633 1.887626,-4.57899 1.963971,-4.8948 0.126905,-0.52495 -0.26449,-0.73767 -4.564322,-2.4806 -2.586721,-1.04853 -7.203442,-2.93141 -10.25938,-4.18419 -3.055937,-1.25278 -7.699375,-3.15328 -10.318749,-4.22334 -2.619375,-1.07005 -6.250782,-2.55699 -8.069792,-3.3043 -1.81901,-0.74732 -5.748073,-2.35644 -8.731249,-3.57583 -2.9831774,-1.21939 -5.8892666,-2.41317 -6.4579764,-2.65285 l -1.0340178,-0.43576 0.1657203,4.05592 c 0.7115703,17.41533 6.2915297,34.73466 16.1817709,50.22572 2.033234,3.18464 6.19049,8.59665 9.399885,12.23698 2.82762,3.20728 3.44045,3.75516 3.44045,3.07579 z m 7.035558,-3.68136 c 1.380863,-0.58773 3.488151,-1.46751 4.682863,-1.95506 1.194712,-0.48756 10.009438,-4.17388 19.588281,-8.19183 9.578842,-4.01795 17.496498,-7.30718 17.594791,-7.30941 0.09829,-0.002 0.338218,-0.10515 0.533167,-0.22871 0.278946,-0.17681 -0.07009,-1.26093 -1.638446,-5.08918 -1.096094,-2.67548 -2.817489,-6.88858 -3.825323,-9.36243 l -1.832424,-4.49792 -9.096838,-3.76681 c -5.003261,-2.07175 -9.275432,-3.76578 -9.493713,-3.7645 -0.267379,0.002 -1.209535,1.96445 -2.887482,6.01578 -1.369834,3.30739 -2.842187,6.84689 -3.271896,7.86553 -0.746747,1.7702 -1.277299,3.04422 -2.671944,6.41615 -0.346082,0.83674 -2.205436,5.27182 -4.131898,9.85573 -5.483285,13.04716 -6.317385,15.08125 -6.184231,15.08125 0.06844,0 1.25423,-0.48087 2.635093,-1.06859 z m 130.93172,-5.3292 c -3.54316,-8.48007 -4.85896,-11.61974 -8.46262,-20.19284 -1.71273,-4.07458 -3.46297,-8.3013 -3.88942,-9.39271 -0.42645,-1.0914 -1.10219,-2.69875 -1.50165,-3.57187 -0.39947,-0.87313 -1.12313,-2.5634 -1.60814,-3.75616 l -0.88185,-2.16867 -0.94982,0.40373 c -0.5224,0.22205 -3.39061,1.3979 -6.37378,2.613 -2.98318,1.2151 -6.31693,2.5849 -7.40834,3.044 -1.0914,0.4591 -2.38427,0.96771 -2.87304,1.13024 -0.48877,0.16253 -1.04346,0.53945 -1.23266,0.8376 -0.36825,0.58032 -7.53714,18.03986 -7.53421,18.34926 0.002,0.19481 2.90504,1.44527 17.06387,7.34969 4.80219,2.00258 9.68375,4.04635 10.84792,4.54172 1.16417,0.49537 2.53338,1.0629 3.04271,1.26118 0.50932,0.19828 3.90076,1.60998 7.53652,3.13711 3.63577,1.52714 6.65368,2.73342 6.70647,2.68063 0.0528,-0.0528 -1.06409,-2.87245 -2.48196,-6.26591 z m -61.99375,-23.77457 c 4.84091,-0.48487 9.45388,-1.81869 13.79634,-3.98914 5.95733,-2.9776 12.47056,-9.18613 15.7055,-14.97074 6.39085,-11.4279 6.67498,-24.55166 0.78515,-36.26507 -3.50767,-6.97587 -9.65081,-13.05987 -16.74738,-16.58613 -11.51329,-5.72093 -24.88135,-5.41297 -35.670431,0.82173 -10.652307,6.15567 -17.456585,16.19881 -19.062763,28.13671 -2.611718,19.41157 10.097365,37.68212 29.249221,42.0486 4.369133,0.99614 7.752563,1.22389 11.944363,0.80404 z M 72.981016,246.10777 c -4.562718,-5.7292 -7.699405,-13.13014 -8.662541,-20.43907 -0.433619,-3.29059 -0.169127,-10.4061 0.501577,-13.49375 1.334046,-6.1414 4.436254,-12.80119 7.907396,-16.97553 1.237186,-1.48782 1.394852,-1.8352 0.65267,-1.43799 -0.265366,0.14202 -2.1406,0.93698 -4.167187,1.76659 -9.241972,3.7833 -12.832012,5.25456 -14.797205,6.06418 -1.164166,0.47962 -4.021666,1.644 -6.349999,2.58752 -2.328334,0.94351 -5.721615,2.33855 -7.540625,3.10008 -1.819011,0.76152 -5.450417,2.25498 -8.069792,3.31878 -5.817424,2.36263 -15.736997,6.42199 -20.338769,8.3232 -3.1847184,1.31575 -3.3647777,1.42819 -2.7781244,1.73488 0.3450212,0.18037 5.9255924,2.49352 12.4012694,5.14034 6.475677,2.64682 14.631458,5.98444 18.123957,7.41692 3.4925,1.43248 8.969375,3.6779 12.170833,4.98981 3.201459,1.31191 9.273646,3.81209 13.49375,5.55595 4.220104,1.74386 7.777472,3.17905 7.905263,3.18932 0.12779,0.0103 -0.07582,-0.36829 -0.452473,-0.84123 z m 73.377414,-3.09659 c 5.02047,-2.06133 11.62844,-4.76887 14.68438,-6.01676 3.05593,-1.24789 6.33015,-2.59475 7.27604,-2.99302 0.94588,-0.39828 3.56526,-1.47058 5.82083,-2.3829 2.25557,-0.91232 6.24417,-2.5486 8.86354,-3.63619 2.61938,-1.08759 6.90563,-2.84838 9.525,-3.91288 7.7875,-3.16477 8.88394,-3.6279 8.79632,-3.71552 -0.0871,-0.0871 -6.02861,-2.55135 -14.61715,-6.06246 -11.48894,-4.69683 -16.83541,-6.88579 -19.71146,-8.0703 -1.67349,-0.68924 -5.3049,-2.17425 -8.06979,-3.30004 -2.7649,-1.12579 -6.3963,-2.61365 -8.06979,-3.30636 -7.1798,-2.97196 -14.2496,-5.82834 -14.42568,-5.82834 -0.10458,0 0.2201,0.50602 0.72152,1.12448 8.13739,10.03692 10.94226,24.02842 7.36745,36.75096 -1.33275,4.74317 -3.63015,9.4114 -6.49084,13.18915 -1.465,1.93464 -1.64157,2.24442 -1.17263,2.05732 0.20578,-0.0821 4.48179,-1.83581 9.50226,-3.89714 z M 6.9230197,217.78042 c 1.236927,-0.50706 3.2609893,-1.33774 4.4979163,-1.84595 1.236927,-0.50822 4.749271,-1.94217 7.805208,-3.18656 3.055938,-1.24439 6.985,-2.84992 8.73125,-3.56785 7.837338,-3.22213 20.833583,-8.52252 22.820312,-9.30704 1.200546,-0.47407 2.182812,-0.97487 2.182812,-1.11288 0,-0.13802 -0.731567,-1.99817 -1.625705,-4.13369 -0.894138,-2.13551 -2.072961,-4.95431 -2.619605,-6.264 -1.78266,-4.27101 -7.789617,-18.59906 -11.369824,-27.11979 -1.926048,-4.5839 -3.796053,-9.07851 -4.155566,-9.98802 -0.359513,-0.9095 -0.748264,-1.65365 -0.863891,-1.65365 -0.262161,0 -3.82988,3.92496 -6.132794,6.74688 -13.673349,16.75488 -21.7219042,37.72289 -22.6260619,58.94517 l -0.1666607,3.91184 0.6368255,-0.25127 c 0.350254,-0.13819 1.6488567,-0.66613 2.8857838,-1.17319 z M 206.58097,215.68068 c -0.85885,-16.58077 -5.31549,-31.79454 -13.46659,-45.97135 -3.44631,-5.994 -7.18455,-11.15277 -12.28426,-16.95227 l -3.05098,-3.46966 -1.51447,3.53024 c -0.83295,1.94162 -2.0269,4.78039 -2.65322,6.30835 -0.62631,1.52797 -1.64444,3.96875 -2.2625,5.42396 -0.61806,1.45521 -3.41318,8.12271 -6.21137,14.81667 -2.79818,6.69396 -5.77384,13.77818 -6.61256,15.74271 -0.83873,1.96453 -1.44878,3.64883 -1.35567,3.74289 0.0931,0.0941 5.70569,2.43696 12.47241,5.20645 6.76672,2.76949 15.1011,6.18482 18.52084,7.58961 3.41974,1.4048 8.71802,3.56815 11.77395,4.80745 3.05594,1.2393 5.73485,2.35707 5.95313,2.48393 0.81585,0.47417 0.87116,0.21342 0.69129,-3.25898 z M 68.703226,192.46863 c 2.182812,-0.90088 4.325937,-1.76247 4.7625,-1.91464 0.436562,-0.15217 0.93062,-0.40986 1.097905,-0.57264 0.167285,-0.16279 1.022977,-2.08192 1.901537,-4.26473 0.878561,-2.18281 2.507913,-6.17141 3.620784,-8.86354 2.392981,-5.78884 2.403809,-5.82084 1.96988,-5.82084 -0.184334,0 -0.942361,-0.28778 -1.684504,-0.63951 -0.742144,-0.35173 -1.944665,-0.87283 -2.672269,-1.15801 -0.727604,-0.28518 -7.21651,-2.98945 -14.419791,-6.00949 -7.203281,-3.02005 -13.751719,-5.75629 -14.552083,-6.08053 -0.800365,-0.32424 -3.062552,-1.27593 -5.027083,-2.11485 -4.404659,-1.88094 -6.690715,-2.79971 -6.755812,-2.71517 -0.02729,0.0354 0.600309,1.61225 1.394662,3.50402 9.406474,22.40177 14.587417,34.78943 15.326105,36.6448 0.492464,1.23692 1.205301,2.91925 1.584081,3.7385 l 0.688691,1.48955 4.398323,-1.79247 c 2.419078,-0.98586 6.184262,-2.52956 8.367074,-3.43045 z m 87.254474,1.0532 c 0.94981,-2.25557 2.34645,-5.58932 3.10362,-7.40834 0.75718,-1.81901 1.91118,-4.55744 2.56445,-6.08541 0.65327,-1.52797 1.69806,-4.02828 2.32175,-5.55625 0.6237,-1.52797 2.28528,-5.51656 3.69241,-8.86354 1.40713,-3.34698 3.22288,-7.66706 4.035,-9.60017 0.81212,-1.93311 1.42925,-3.56207 1.37141,-3.61991 -0.0578,-0.0578 -1.94886,0.67024 -4.20227,1.61794 -2.2534,0.94771 -5.76397,2.41445 -7.80126,3.25943 -2.0373,0.84497 -6.44261,2.68891 -9.78959,4.09765 -3.34698,1.40874 -9.95495,4.17483 -14.68437,6.14688 -4.72943,1.97204 -8.64617,3.6284 -8.70387,3.68079 -0.12288,0.11158 0.3193,1.2585 2.89704,7.51426 1.04936,2.54662 2.53372,6.17331 3.29858,8.05932 0.89801,2.21431 1.56519,3.49935 1.88331,3.62736 0.27096,0.10903 1.68327,0.66846 3.13848,1.24317 1.45521,0.57471 3.65786,1.45916 4.89479,1.96544 4.34944,1.78026 10.18682,4.10004 10.22002,4.06144 0.0185,-0.0215 0.81068,-1.88449 1.7605,-4.14006 z m -24.69964,-5.71724 c -0.30887,-0.71182 -2.14439,-5.16375 -4.07893,-9.89318 -1.93454,-4.72943 -4.61696,-11.27786 -5.96094,-14.55208 -4.05626,-9.88199 -9.62488,-23.49551 -12.90517,-31.54912 -1.70351,-4.18238 -3.17114,-7.60543 -3.26139,-7.60677 -0.15038,-0.002 -1.14908,2.38962 -7.124642,17.06318 -1.125957,2.7649 -3.174083,7.76552 -4.551391,11.1125 -2.852208,6.93111 -7.07343,17.245 -11.478477,28.04583 -1.661791,4.07459 -3.134798,7.67623 -3.273348,8.00365 -0.282403,0.66737 0.03305,0.79782 0.517561,0.21402 0.649019,-0.78202 4.999485,-3.56667 7.63548,-4.88732 3.14392,-1.57513 6.360205,-2.70555 10.036139,-3.52738 2.21307,-0.49477 3.394638,-0.57755 8.270478,-0.5794 5.27514,-0.002 5.90966,0.0502 8.73125,0.71837 6.33567,1.50034 12.05156,4.20852 16.60752,7.86861 0.68852,0.55314 1.28461,0.97366 1.32465,0.9345 0.04,-0.0391 -0.17992,-0.65359 -0.48879,-1.36541 z m -43.8373,-28.87703 c 2.132693,-5.20237 6.63624,-16.18589 10.007883,-24.40782 3.371647,-8.22192 6.188367,-15.09778 6.259377,-15.27968 0.18071,-0.46291 -3.25041,-0.43516 -8.51153,0.0689 -19.902708,1.90665 -38.749316,9.6566 -54.254513,22.31011 -3.498036,2.85468 -6.785922,5.93299 -6.561133,6.14291 0.180528,0.16859 6.563282,2.87137 20.054882,8.49225 1.74625,0.72752 4.246563,1.77985 5.55625,2.33851 1.309688,0.55865 4.405313,1.85677 6.879167,2.88469 2.473854,1.02793 7.176822,2.99779 10.451041,4.37747 3.274219,1.37968 6.017886,2.51369 6.09704,2.52003 0.07915,0.006 1.888844,-4.24496 4.021536,-9.44733 z m 50.33871,4.82571 c 5.82084,-2.43709 12.36927,-5.17416 14.55209,-6.08237 2.18281,-0.90821 7.00484,-2.92427 10.71562,-4.48013 3.71078,-1.55586 8.05656,-3.37756 9.65729,-4.04824 1.60073,-0.67067 3.00486,-1.29947 3.12029,-1.39732 0.30151,-0.25561 -5.92712,-5.67631 -10.20136,-8.87812 -11.24493,-8.42352 -25.61436,-14.99379 -38.69184,-17.69142 -6.97552,-1.43892 -13.54342,-2.25027 -18.30212,-2.26091 l -2.42712,-0.005 0.3509,0.7276 c 0.19299,0.40018 1.68721,4.00182 3.32048,8.00365 1.63327,4.00182 4.19246,10.2526 5.68708,13.89062 3.82179,9.30252 8.44714,20.63448 9.12554,22.35729 1.1406,2.89656 1.95901,4.51203 2.23163,4.40504 0.15301,-0.0601 5.04069,-2.10316 10.86152,-4.54026 z"
       id="path1" /></g></svg>
