<?xml version="1.0" encoding="UTF-8" standalone="no"?>
<!-- Created with Inkscape (http://www.inkscape.org/) -->

<svg
   width="188.58278mm"
   height="188.43559mm"
   viewBox="0 0 188.58278 188.43559"
   version="1.1"
   id="svg8"
   inkscape:version="1.4 (e7c3feb100, 2024-10-09)"
   sodipodi:docname="The Star of Ishtar.svg"
   inkscape:export-filename="../Temple of Sumer/The Star of Ishtar.png"
   inkscape:export-xdpi="96"
   inkscape:export-ydpi="96"
   xmlns:inkscape="http://www.inkscape.org/namespaces/inkscape"
   xmlns:sodipodi="http://sodipodi.sourceforge.net/DTD/sodipodi-0.dtd"
   xmlns="http://www.w3.org/2000/svg"
   xmlns:svg="http://www.w3.org/2000/svg"
   xmlns:rdf="http://www.w3.org/1999/02/22-rdf-syntax-ns#"
   xmlns:cc="http://creativecommons.org/ns#"
   xmlns:dc="http://purl.org/dc/elements/1.1/">
  <defs
     id="defs2" />
  <sodipodi:namedview
     id="base"
     pagecolor="#ffffff"
     bordercolor="#666666"
     borderopacity="1.0"
     inkscape:pageopacity="0.0"
     inkscape:pageshadow="2"
     inkscape:zoom="0.29024697"
     inkscape:cx="327.30746"
     inkscape:cy="409.99567"
     inkscape:document-units="mm"
     inkscape:current-layer="layer1"
     showgrid="false"
     inkscape:window-width="1920"
     inkscape:window-height="947"
     inkscape:window-x="0"
     inkscape:window-y="32"
     inkscape:window-maximized="1"
     inkscape:showpageshadow="0"
     inkscape:pagecheckerboard="1"
     inkscape:deskcolor="#d1d1d1" />
  <metadata
     id="metadata5">
    <rdf:RDF>
      <cc:Work
         rdf:about="">
        <dc:format>image/svg+xml</dc:format>
        <dc:type
           rdf:resource="http://purl.org/dc/dcmitype/StillImage" />
      </cc:Work>
    </rdf:RDF>
  </metadata>
  <g
     inkscape:label="Layer 1"
     inkscape:groupmode="layer"
     id="layer1"
     transform="translate(-10.708608,-40.924244)">
    <path
       style="fill:#000000;stroke-width:0.187481"
       d="m 97.658582,229.24385 c -20.69991,-1.71346 -39.67592,-9.73502 -54.99138,-23.24602 -2.35022,-2.07332 -7.11491,-6.86124 -9.04238,-9.08647 -8.15322,-9.41273 -14.620329,-20.86787 -18.416854,-32.62161 -2.277399,-7.05065 -3.733803,-14.48706 -4.312484,-22.01957 -0.249168,-3.24334 -0.249168,-11.02398 0,-14.26731 2.369997,-30.849516 19.263128,-58.063882 46.020238,-74.137313 3.20868,-1.927509 9.41024,-4.960846 13.12431,-6.41943 8.59426,-3.375127 16.392,-5.271614 25.7779,-6.269441 3.16608,-0.336589 15.207018,-0.336589 18.373098,0 11.94429,1.269813 22.54173,4.310849 32.77431,9.404906 30.01538,14.942469 49.71786,44.315892 52.16642,77.772228 0.3225,4.4066 0.13446,13.44263 -0.36745,17.65657 -3.3093,27.78425 -18.19907,52.08374 -41.50704,67.73779 -12.13417,8.14952 -26.30261,13.33584 -41.37892,15.14664 -2.59465,0.31165 -4.63381,0.4067 -9.74899,0.45443 -3.55744,0.0332 -7.369288,-0.0143 -8.470778,-0.1054 z m 16.344968,-2.69524 c 11.68082,-1.27204 21.70341,-4.16024 31.68421,-9.13041 9.52683,-4.7441 17.73592,-10.69949 24.93609,-18.09019 14.6838,-15.07236 23.45182,-33.79743 25.8,-55.09868 0.46365,-4.20606 0.46408,-13.97282 7.5e-4,-18.18562 -1.26982,-11.54693 -4.28559,-21.9378 -9.24314,-31.847506 C 182.59104,85.020355 177.21634,77.577546 169.8899,70.251109 162.55059,62.911798 155.12405,57.55172 145.90285,52.938533 135.75078,47.859649 125.15428,44.849815 113.06615,43.61158 109.48677,43.244931 99.813262,43.301897 96.005412,43.712048 74.040422,46.077944 54.498882,55.483647 39.361792,70.975654 24.726302,85.954308 15.925481,104.75539 13.58433,126.04371 c -0.462803,4.20832 -0.462803,13.9773 0,18.18562 0.721282,6.55869 2.193123,13.54097 4.050827,19.21676 6.953825,21.24579 21.207325,39.08865 40.405445,50.58045 12.22313,7.31665 26.54222,11.78608 40.9645,12.7863 3.222868,0.22352 11.927868,0.0702 14.998448,-0.26423 z m -15.092188,-1.15612 c -0.30934,-0.0408 -1.61702,-0.168 -2.90595,-0.28258 -5.19058,-0.4614 -11.67654,-1.71934 -16.90015,-3.27774 -23.83876,-7.11203 -43.84436,-23.92846 -55.02568,-46.25384 -6.354855,-12.68854 -9.438845,-25.90224 -9.438845,-40.44181 0,-14.35324 2.961962,-27.27817 9.108425,-39.745876 4.64345,-9.418921 9.89481,-16.751823 17.32351,-24.190206 7.48302,-7.492775 15.07224,-12.893016 24.64867,-17.539197 9.09373,-4.411988 17.97946,-7.005489 28.69049,-8.373962 2.79647,-0.357285 4.09498,-0.407203 10.592648,-0.407203 6.49767,0 7.79619,0.04992 10.59265,0.407203 10.71103,1.368473 19.59676,3.961974 28.69049,8.373962 9.48286,4.600781 17.11752,10.016061 24.46722,17.354652 7.67072,7.659121 13.07067,15.227943 17.72021,24.837491 4.95796,10.246986 7.69995,20.410896 8.701,32.252616 0.4194,4.96114 0.209,13.13874 -0.47995,18.65432 -3.24202,25.95492 -17.92222,49.39163 -40.10301,64.02382 -11.79927,7.78372 -24.90999,12.50933 -39.5584,14.25837 -2.46402,0.29421 -14.55753,0.55672 -16.123328,0.34998 z m 4.509868,-2.66999 c -0.0598,-0.18832 -3.14105,-11.67242 -6.847298,-25.52023 -3.70624,-13.8478 -6.77871,-25.21791 -6.82771,-25.26691 -0.049,-0.049 -5.34676,2.92672 -11.77279,6.61271 -6.42602,3.686 -16.53474,9.48289 -22.46382,12.88199 -5.92907,3.39909 -10.97892,6.30494 -11.22189,6.45743 l -0.44176,0.27726 0.62924,0.6571 c 3.30551,3.45185 11.05096,9.24518 16.75257,12.53037 12.29843,7.08618 26.85434,11.21058 41.211488,11.67723 0.97879,0.0318 1.0795,3.8e-4 0.98197,-0.30695 z m -7.040848,-1.65771 c -17.52978,-1.93282 -32.62542,-8.14954 -45.8811,-18.89483 -2.40249,-1.94751 -2.58263,-2.13803 -2.58263,-2.73156 0,-0.61833 0.0695,-0.67805 2.24977,-1.93322 23.28869,-13.40713 37.02346,-21.21481 37.4228,-21.27343 0.27368,-0.0402 0.54357,0.001 0.59975,0.0923 0.2858,0.46243 11.76755,43.83966 11.7179,44.2694 -0.057,0.49364 -0.0841,0.50333 -1.46421,0.52335 -0.77336,0.0112 -1.70138,-0.0122 -2.06228,-0.052 z m 0.29195,-3.01499 c -0.17109,-0.7134 -9.61653,-36.09548 -9.95551,-37.29279 l -0.27418,-0.96843 -1.63982,0.94482 c -0.9019,0.51966 -8.55786,4.91233 -17.01323,9.76151 -8.45537,4.84918 -15.52465,8.91985 -15.7095,9.04593 -0.29974,0.20445 -0.0969,0.41043 1.8748,1.90399 11.99372,9.08514 24.64121,14.45223 39.23832,16.65116 3.83149,0.57718 3.62927,0.57987 3.47912,-0.0462 z m 17.327418,4.5242 c 10.0394,-1.01873 19.93559,-3.8394 29.18016,-8.31711 7.32186,-3.54643 13.90658,-7.89373 19.75606,-13.04316 1.0827,-0.95312 2.20911,-1.98715 2.50313,-2.29783 l 0.53457,-0.56488 -0.44083,-0.27992 c -0.38253,-0.24289 -5.25188,-3.06001 -19.6576,-11.37275 -1.90761,-1.10078 -8.47175,-4.89402 -14.58697,-8.42942 -6.11522,-3.5354 -11.14059,-6.39751 -11.16749,-6.36024 -0.0386,0.0535 -13.30089,49.02681 -13.74529,50.75684 l -0.11412,0.44428 2.51185,-0.13017 c 1.38152,-0.0716 3.73346,-0.25413 5.22653,-0.40564 z m -4.22898,-1.63522 c -0.0652,-0.16976 2.57252,-10.24334 5.86147,-22.38573 l 5.97991,-22.07707 0.58793,-0.0577 c 0.48057,-0.0472 2.12248,0.82919 8.99125,4.79918 4.62182,2.6713 13.12782,7.58297 18.90223,10.91482 12.93486,7.46345 11.90501,6.81823 11.90501,7.45877 0,0.41515 -0.27181,0.74518 -1.35923,1.65035 -11.08023,9.22327 -23.33299,15.25149 -37.10589,18.25568 -3.43696,0.74968 -8.54584,1.48337 -11.35272,1.63038 -2.02383,0.10599 -2.30535,0.0839 -2.40996,-0.18865 z m 5.83415,-2.66574 c 11.08739,-1.44567 22.30903,-5.33037 31.95765,-11.06309 3.9747,-2.36157 10.6587,-7.13681 10.3613,-7.4024 -0.38317,-0.34219 -34.40294,-19.88154 -34.48051,-19.80398 -0.0492,0.0492 -2.40382,8.6403 -5.23245,19.09129 -2.82864,10.451 -5.18291,19.10727 -5.23172,19.23616 -0.11178,0.29514 -0.0765,0.29436 2.62573,-0.058 z m -2.34983,-30.92318 c 4.54408,-16.80764 8.2962,-30.65935 8.33804,-30.78159 0.0418,-0.12223 -0.59871,0.23723 -1.42343,0.7988 -0.82473,0.56157 -1.8995,1.22374 -2.38838,1.47147 l -0.88889,0.45043 -5.3975,19.93608 c -2.96862,10.96485 -5.52994,20.08372 -5.69181,20.26417 -0.16362,0.1824 -0.5599,0.32809 -0.89238,0.32809 -0.33325,0 -0.72749,-0.14527 -0.89036,-0.32809 -0.16077,-0.18045 -2.6252,-9.06 -5.476518,-19.73233 -2.85132,-10.67233 -5.26752,-19.66971 -5.36933,-19.99418 -0.12279,-0.39136 -0.38023,-0.67076 -0.76481,-0.83006 -0.31884,-0.13207 -1.37487,-0.77176 -2.34674,-1.42155 -1.14521,-0.76567 -1.73388,-1.06735 -1.67281,-0.85726 0.0518,0.17829 3.69,13.78058 8.08484,30.22731 8.708858,32.59109 8.395608,31.43707 8.467868,31.19581 0.0276,-0.0923 3.76813,-13.91947 8.31221,-30.7271 z m 57.98023,5.53067 c 12.94951,-14.72178 20.51631,-33.58196 21.61451,-53.87395 0.12498,-2.30927 0.11557,-2.40581 -0.22403,-2.29803 -0.19497,0.0619 -11.68838,3.1452 -25.54092,6.85181 -13.85254,3.70662 -25.22759,6.78046 -25.2779,6.83076 -0.0711,0.0711 24.77215,43.59948 25.94646,45.46124 l 0.27806,0.44083 0.57122,-0.53457 c 0.31417,-0.29402 1.49884,-1.58916 2.6326,-2.87809 z m -2.62695,-0.79679 c -0.14156,-0.17893 -19.87416,-34.53567 -22.12543,-38.52292 -0.61702,-1.09283 -0.51079,-1.55736 0.42345,-1.85163 0.41245,-0.12992 4.12457,-1.13465 8.24914,-2.23273 8.50732,-2.2649 13.42839,-3.58342 25.5911,-6.85669 4.6917,-1.26265 8.91001,-2.30288 9.37402,-2.31163 l 0.84367,-0.0159 0.0575,1.00832 c 0.0316,0.55458 -0.0788,2.19972 -0.24551,3.65588 -1.96554,17.17417 -8.6161,32.63819 -19.74379,45.90868 -0.97092,1.15789 -1.32198,1.45298 -1.72855,1.45298 -0.2806,0 -0.59362,-0.10546 -0.6956,-0.23435 z m 3.49967,-6.98365 c 7.4082,-9.78575 12.55704,-21.32472 15.11212,-33.86749 0.51978,-2.55157 1.26192,-7.67319 1.13087,-7.80425 -0.11624,-0.11624 -38.20361,10.06733 -38.42119,10.27282 -0.1479,0.13968 1.94227,3.84228 15.6384,27.70239 l 4.01231,6.98987 0.3412,-0.42805 c 0.18766,-0.23542 1.17149,-1.5248 2.18629,-2.86529 z M 55.219642,172.94766 c 7.19126,-12.45824 13.04574,-22.67184 13.00996,-22.69688 -0.0498,-0.0349 -48.684583,-13.20269 -50.758706,-13.74287 l -0.44887,-0.1169 0.129066,2.41931 c 0.695945,13.04536 3.67017,24.45593 9.31071,35.72043 3.72943,7.4479 9.10687,15.18911 14.21153,20.45852 0.81406,0.84034 1.09095,1.02609 1.2576,0.84367 0.11753,-0.12867 6.09745,-10.42704 13.28871,-22.88528 z m -16.31664,17.83163 c -8.65535,-10.38483 -14.5641,-21.97785 -17.70494,-34.73725 -1.267858,-5.15059 -2.331825,-12.33408 -2.21005,-14.92143 0.04904,-1.04193 0.10693,-1.20916 0.431597,-1.24676 0.206229,-0.0239 10.245813,2.63378 22.310183,5.9059 l 21.93523,5.94933 0.0572,0.58882 c 0.0559,0.57548 -2.3541,4.82846 -20.3297,35.87562 -2.05533,3.54995 -2.26814,3.84753 -2.78765,3.89813 -0.49504,0.0482 -0.69899,-0.10905 -1.70191,-1.31236 z m 11.43749,-19.99295 c 5.43506,-9.41927 9.83861,-17.16927 9.78567,-17.22221 -0.0529,-0.0529 -5.18399,-1.47323 -11.40234,-3.15619 -6.21834,-1.68297 -14.84946,-4.02328 -19.18026,-5.20069 -4.3308,-1.17742 -7.90325,-2.11722 -7.93876,-2.08845 -0.11762,0.0953 0.54591,4.81972 1.02489,7.29739 2.57446,13.31715 8.07091,25.493 16.26368,36.02757 0.73512,0.94524 1.38802,1.66236 1.45089,1.59358 0.0629,-0.0688 4.56118,-7.83172 9.99623,-17.251 z m 112.897988,22.42228 c -0.25478,-0.43823 -5.78829,-10.07708 -12.2967,-21.41965 -10.43071,-18.1782 -11.88243,-20.61724 -12.24648,-20.57546 -0.22716,0.0261 -1.0941,0.23698 -1.92653,0.4687 l -1.51351,0.4213 7.84276,13.66054 c 4.31352,7.51329 7.89344,13.86247 7.95539,14.10927 0.068,0.27084 -0.009,0.63403 -0.19359,0.91608 -0.61603,0.94019 -1.10142,0.7476 -7.64444,-3.03306 -3.33189,-1.92522 -9.46899,-5.47021 -13.638,-7.87775 -4.16901,-2.40755 -7.63615,-4.31247 -7.70476,-4.23318 -0.0686,0.0793 -0.31946,0.88624 -0.55746,1.79319 -0.31387,1.1961 -0.37626,1.70547 -0.22715,1.85458 0.1578,0.15779 42.31545,24.62031 42.55892,24.69535 0.0301,0.009 -0.15368,-0.34167 -0.40845,-0.77991 z M 57.009462,187.58933 c 5.82596,-3.34267 15.35934,-8.80629 21.1853,-12.14136 5.82596,-3.33507 10.65297,-6.11451 10.72668,-6.17654 0.0737,-0.062 -0.0873,-0.96478 -0.35793,-2.00613 l -0.49196,-1.89335 -8.82861,5.063 c -4.85574,2.78465 -11.00992,6.31716 -13.67595,7.85002 -2.66604,1.53287 -5.05,2.8379 -5.2977,2.90007 -0.27263,0.0684 -0.63478,-0.008 -0.91769,-0.19318 -1.01132,-0.66264 -1.02628,-0.63188 7.41044,-15.23075 4.33278,-7.49741 7.81289,-13.68916 7.73358,-13.75943 -0.20168,-0.1787 -3.57889,-1.02979 -3.66228,-0.92294 -0.0575,0.0737 -12.60396,21.79646 -22.01012,38.10805 -1.47453,2.55703 -2.61918,4.61112 -2.54368,4.56464 0.0755,-0.0465 4.90396,-2.81942 10.72992,-6.1621 z m 52.404828,-10.52948 c 2.42736,-8.95916 4.38832,-16.31444 4.35769,-16.34508 -0.0306,-0.0306 -0.72149,0.12926 -1.53522,0.35532 l -1.47952,0.41102 -2.30483,8.50375 c -1.33476,4.92467 -2.43925,8.65229 -2.62421,8.85667 -0.40555,0.44812 -1.41983,0.46209 -1.80314,0.0248 -0.15818,-0.18045 -1.27938,-4.04021 -2.49154,-8.57723 -1.21216,-4.53703 -2.241568,-8.38519 -2.287558,-8.55146 -0.0542,-0.19584 -0.59005,-0.43763 -1.52147,-0.6865 -0.79082,-0.2113 -1.47305,-0.34941 -1.51606,-0.30691 -0.043,0.0425 1.89742,7.45891 4.312058,16.48092 2.41464,9.02201 4.41054,16.34074 4.43533,16.26385 0.0248,-0.0769 2.0311,-7.47002 4.45847,-16.42918 z m 34.72244,-4.27815 c -1.08437,-1.88649 -4.10095,-7.14209 -6.70351,-11.67912 -2.60257,-4.53703 -4.74724,-8.26873 -4.76593,-8.29268 -0.0386,-0.0494 -2.56156,0.65837 -2.64527,0.74208 -0.0299,0.0299 1.41547,2.62689 3.21198,5.77105 1.88596,3.3007 3.26656,5.91939 3.2668,6.19638 5.6e-4,0.74632 -0.42937,1.18946 -1.14937,1.18444 -0.47198,-0.003 -2.03321,-0.81702 -6.18686,-3.22467 -3.05557,-1.77114 -5.63958,-3.22026 -5.74224,-3.22026 -0.24323,0 -0.85906,2.44952 -0.66327,2.6382 0.0824,0.0794 3.9463,2.33482 8.58644,5.01204 4.64014,2.67722 9.82662,5.6739 11.52551,6.65929 1.69889,0.9854 3.12228,1.75824 3.16309,1.71742 0.0408,-0.0408 -0.813,-1.61769 -1.89737,-3.50417 z m -68.342728,-3.35204 c 6.32146,-3.62855 11.51316,-6.61243 11.5371,-6.63084 0.0506,-0.0389 -0.65947,-2.56216 -0.74511,-2.6478 -0.0316,-0.0316 -2.62074,1.41399 -5.75366,3.2124 -3.45021,1.98054 -5.89224,3.26983 -6.19335,3.26983 -0.763,0 -1.20685,-0.42454 -1.20205,-1.14978 0.003,-0.47225 0.79877,-1.9987 3.15841,-6.05935 1.73484,-2.98544 3.19078,-5.56776 3.23542,-5.73849 0.0643,-0.24583 -0.18134,-0.37635 -1.18067,-0.62738 -0.69401,-0.17433 -1.32704,-0.24955 -1.40673,-0.16715 -0.0797,0.0824 -2.94524,5.00087 -6.36789,10.92995 -3.42265,5.92907 -6.44125,11.1543 -6.70801,11.61162 -0.37644,0.64537 -0.41584,0.80495 -0.17602,0.71292 0.16995,-0.0652 5.4811,-3.08738 11.80256,-6.71593 z m 30.713538,-2.14022 1.42803,-5.24946 -2.898,-0.0518 c -1.5939,-0.0285 -2.9279,-0.0219 -2.96443,0.0147 -0.0365,0.0365 0.58697,2.52231 1.38558,5.52394 0.79861,3.00163 1.49,5.35728 1.53641,5.23479 0.0464,-0.1225 0.727,-2.58498 1.51241,-5.47218 z M 82.464452,159.4227 c 1.7812,-1.0114 3.28155,-1.90848 3.33411,-1.99353 0.0526,-0.085 -0.0489,-0.69681 -0.22548,-1.35948 l -0.32105,-1.20486 -1.08856,-0.30265 c -0.5987,-0.16645 -1.19996,-0.30264 -1.33612,-0.30264 -0.21938,0 -4.44511,7.03194 -4.44511,7.39701 0,0.0799 0.18983,0.0238 0.42183,-0.12481 0.23201,-0.14858 1.87918,-1.09765 3.66038,-2.10904 z m 48.783178,1.63301 c -0.22888,-0.38668 -1.13563,-1.96855 -2.01501,-3.51526 -0.87938,-1.54672 -1.7001,-2.923 -1.82382,-3.0584 -0.1852,-0.2027 -0.44145,-0.1885 -1.45048,0.0804 l -1.22553,0.32656 -0.30265,1.08855 c -0.16645,0.59871 -0.30264,1.2 -0.30264,1.33621 0,0.22099 6.98512,4.42408 7.37713,4.43897 0.0875,0.003 -0.0281,-0.31032 -0.257,-0.697 z m -22.8685,-1.81942 c 3.98312,-0.60492 8.21125,-2.35956 11.26949,-4.67674 7.01567,-5.31567 10.74507,-14.30732 9.45563,-22.79768 -0.56706,-3.7338 -2.16198,-7.76152 -4.22007,-10.65707 -5.24949,-7.38561 -14.51186,-11.39578 -23.25435,-10.06805 -7.892088,1.19859 -14.629388,5.97322 -18.196408,12.89555 -3.68707,7.15532 -3.68707,15.25312 0,22.40844 4.67847,9.07927 14.98668,14.40804 24.945708,12.89555 z m -7.12426,-7.21481 c -6.476228,-1.36903 -11.804158,-6.73075 -13.145328,-13.22871 -0.45495,-2.20422 -0.45495,-5.10827 0,-7.3125 1.35112,-6.54618 6.68786,-11.88669 13.226928,-13.23628 9.15233,-1.88894 17.94705,3.49138 20.41094,12.48674 0.59337,2.16633 0.59337,6.64525 0,8.81158 -1.7398,6.35178 -6.81424,11.19453 -13.08668,12.48916 -2.1714,0.44817 -5.25819,0.44401 -7.40586,-0.01 z m 7.50664,-2.64797 c 7.9274,-2.17908 12.6103,-10.26114 10.46173,-18.05556 -1.61824,-5.87055 -6.47544,-10.04281 -12.61396,-10.83522 -4.80952,-0.62084 -10.246318,1.68282 -13.213508,5.5988 -2.09555,2.76562 -3.0849,5.66961 -3.0849,9.05499 0,3.38355 0.9895,6.28962 3.0817,9.05071 2.13344,2.81552 5.8486,4.9909 9.512738,5.5701 1.52574,0.24118 4.22643,0.0642 5.8562,-0.38382 z m -5.02522,-9.72256 c -0.97067,-0.24762 -2.08036,-1.08561 -2.67109,-2.01708 -1.405618,-2.21644 -0.70425,-5.11616 1.57708,-6.52025 0.81308,-0.50042 1.08469,-0.56544 2.3622,-0.56544 1.27751,0 1.54913,0.065 2.3622,0.56544 1.12394,0.69175 2.07067,2.04422 2.24508,3.20725 0.28359,1.89113 -0.64449,3.90743 -2.22484,4.83358 -0.90419,0.52989 -2.6102,0.76192 -3.65063,0.4965 z m -20.955188,10.66131 c -0.56552,-0.83051 -1.23067,-1.90956 -1.47812,-2.39788 l -0.44991,-0.88785 -19.9366,-5.39631 c -10.96513,-2.96798 -20.08424,-5.52975 -20.26469,-5.69284 -0.4238,-0.38303 -0.4238,-1.40747 0,-1.78474 0.18045,-0.16064 9.06,-2.62495 19.73233,-5.47624 10.67233,-2.85129 19.66971,-5.26758 19.99418,-5.36954 0.3912,-0.12294 0.67083,-0.38068 0.83006,-0.7651 0.13207,-0.31884 0.76834,-1.36975 1.41394,-2.33536 0.64559,-0.96561 1.15491,-1.75565 1.1318,-1.75565 -0.11103,0 -61.69523,16.51501 -61.73592,16.5557 -0.0258,0.0258 13.84784,3.81393 30.83022,8.41816 16.98238,4.60423 30.89592,8.37726 30.91899,8.3845 0.0231,0.007 -0.42076,-0.66633 -0.98628,-1.49685 z m 74.341758,-6.74563 c 16.95295,-4.54061 30.84366,-8.27577 30.86824,-8.30035 0.0246,-0.0246 -13.17464,-3.6221 -29.3316,-7.99449 -16.15696,-4.37239 -30.06485,-8.13813 -30.90643,-8.36833 l -1.53014,-0.41853 1.01657,1.49294 c 0.55912,0.82112 1.21903,1.89247 1.46648,2.38079 l 0.44991,0.88785 19.9366,5.39632 c 10.96513,2.96797 20.08424,5.52974 20.26469,5.69284 0.18193,0.16443 0.32809,0.56295 0.32809,0.89459 0,0.33334 -0.14522,0.72735 -0.32809,0.89014 -0.18045,0.16064 -9.06,2.62495 -19.73233,5.47624 -10.67233,2.85129 -19.66971,5.26758 -19.99418,5.36955 -0.3912,0.12293 -0.67083,0.38067 -0.83006,0.76509 -0.13207,0.31884 -0.76834,1.36975 -1.41393,2.33536 -0.6456,0.96561 -1.15437,1.75565 -1.1306,1.75565 0.0238,0 13.91382,-3.71504 30.86678,-8.25566 z m -77.621398,0.33461 c -0.003,-0.0258 -0.19374,-0.71402 -0.42361,-1.52942 l -0.41796,-1.48254 -8.50375,-2.30483 c -4.92466,-1.33476 -8.65229,-2.43925 -8.85667,-2.62421 -0.44803,-0.40547 -0.46199,-1.41951 -0.0248,-1.80435 0.18045,-0.15886 4.16184,-1.31299 8.84752,-2.56474 4.68569,-1.25175 8.53592,-2.29489 8.55606,-2.31809 0.11385,-0.1311 0.78777,-2.86427 0.72237,-2.92967 -0.0432,-0.0432 -7.46313,1.89651 -16.48876,4.31043 -13.07111,3.4959 -16.30442,4.41964 -15.89019,4.53974 1.8633,0.54021 32.06244,8.71965 32.25113,8.73522 0.1289,0.0106 0.23181,-0.002 0.22869,-0.0275 z m 67.567428,-4.27291 c 8.88157,-2.37587 16.21838,-4.33966 16.30403,-4.36396 0.0857,-0.0243 -7.24501,-2.04779 -16.29036,-4.49664 -9.04534,-2.44885 -16.4707,-4.42783 -16.5008,-4.39773 -0.0301,0.0301 0.13023,0.72051 0.35629,1.53424 l 0.41102,1.47953 8.50375,2.30482 c 4.92467,1.33476 8.65229,2.43925 8.85667,2.62421 0.44803,0.40547 0.46199,1.41949 0.0248,1.80442 -0.18045,0.15889 -3.87147,1.2324 -8.20227,2.38557 -4.3308,1.15317 -8.18087,2.18564 -8.5557,2.29438 -0.64116,0.18599 -0.70115,0.27125 -1.01312,1.43997 -0.18239,0.68324 -0.36984,1.34772 -0.41656,1.47662 -0.0467,0.12889 0.0183,0.23435 0.14448,0.23435 0.12619,0 7.49617,-1.9439 16.37774,-4.31978 z m -68.931558,-7.42395 c -0.037,-0.037 -2.5399,0.59414 -5.56205,1.40246 l -5.49482,1.46968 1.85441,0.50707 c 1.01993,0.27888 3.49955,0.95146 5.51028,1.49461 l 3.65587,0.98755 0.0518,-2.89707 c 0.0285,-1.59339 0.0215,-2.92732 -0.0155,-2.9643 z m 59.676248,4.35209 c 2.83564,-0.76697 5.10011,-1.40021 5.03216,-1.40722 -0.16082,-0.0166 -10.49002,-2.80698 -10.79719,-2.91684 -0.18124,-0.0648 -0.23435,0.5993 -0.23435,2.93032 v 3.01413 l 0.42183,-0.11295 c 0.23201,-0.0621 2.74191,-0.74047 5.57755,-1.50744 z m 55.0376,-5.21643 c -1.05892,-20.26498 -8.64061,-39.188116 -21.61447,-53.947526 -2.61549,-2.975452 -2.93688,-3.274286 -3.1824,-2.959064 -0.35778,0.459344 -26.34235,45.54082 -26.27631,45.58762 0.1217,0.0862 50.68189,13.76783 50.94457,13.7856 0.21351,0.0145 0.23586,-0.41418 0.12861,-2.46663 z m -10.88593,-3.15645 c -6.80545,-1.86356 -14.9059,-4.06205 -30.18437,-8.19214 l -5.43694,-1.46972 -0.0581,-0.58925 c -0.0482,-0.48887 1.8013,-3.80847 10.85687,-19.486596 6.00322,-10.39354 11.1135,-19.213717 11.35615,-19.600396 0.34055,-0.542668 0.56214,-0.703052 0.97138,-0.703052 0.43176,0 0.75584,0.269737 1.74569,1.452974 9.75423,11.659854 16.25297,25.6119 18.79843,40.35805 0.61943,3.58842 1.07788,7.73535 1.00701,9.10891 l -0.057,1.10592 -0.74993,0.0344 c -0.46463,0.0213 -3.60279,-0.74679 -8.24914,-2.01911 z m 6.46808,-1.25713 c 0,-0.5825 -0.66828,-5.06707 -1.0535,-7.0696 -2.14069,-11.12834 -6.57372,-22.024836 -12.62316,-31.028036 -1.66291,-2.47486 -4.95152,-6.756275 -5.08065,-6.614459 -0.32516,0.3571 -19.88925,34.398505 -19.8131,34.474665 0.0469,0.0469 4.63153,1.31513 10.18813,2.81837 5.55661,1.50324 14.06814,3.81361 18.91451,5.13415 4.84637,1.32053 8.95923,2.40825 9.13968,2.41714 0.18045,0.009 0.32809,-0.0506 0.32809,-0.13223 z M 42.941312,126.70319 c 13.84954,-3.70787 25.21935,-6.77995 25.26623,-6.82683 0.0668,-0.0668 -24.82528,-43.664946 -25.95256,-45.45567 l -0.27752,-0.440836 -0.57121,0.534576 c -1.07999,1.010704 -4.61471,5.134465 -6.28524,7.332623 -3.52232,4.634837 -6.31044,9.154861 -8.97354,14.547671 -5.41171,10.958796 -8.281236,22.115186 -8.993565,34.965986 -0.124443,2.24501 -0.116987,2.31367 0.238989,2.20069 0.202092,-0.0641 11.698886,-3.15034 25.548416,-6.85821 z m -23.865417,3.24637 c -0.202816,-0.20282 -0.140924,-2.04256 0.15978,-4.74951 1.829497,-16.46917 8.491337,-32.188496 19.074497,-45.008337 1.73055,-2.096294 1.90591,-2.253599 2.45279,-2.200358 0.57258,0.05574 0.90376,0.605642 11.89027,19.742799 8.00563,13.944836 11.2864,19.821606 11.25027,20.152336 -0.0441,0.40387 -0.21546,0.51166 -1.26962,0.79867 -1.47277,0.40099 -12.58514,3.38135 -21.84149,5.85793 -3.71211,0.99319 -9.87992,2.64408 -13.70623,3.66863 -6.666051,1.78494 -7.731926,2.01618 -8.010267,1.73784 z m 7.374237,-4.28481 c 2.01073,-0.54327 10.36299,-2.7793 18.56057,-4.96894 8.19759,-2.18964 14.97919,-4.0489 15.07024,-4.13168 0.12633,-0.11487 -18.36776,-32.72817 -19.48084,-34.353396 -0.20633,-0.301263 -0.44387,-0.05734 -2.21253,2.272024 -5.89555,7.764556 -10.14049,15.872222 -13.12852,25.074942 -1.42254,4.38122 -2.78528,10.29967 -3.29952,14.32999 -0.11183,0.87647 -0.25283,1.91861 -0.31334,2.31586 l -0.11001,0.72228 0.62904,-0.13665 c 0.34597,-0.0752 2.27418,-0.58116 4.28491,-1.12443 z m 46.88163,-7.10524 1.4176,-0.38998 -7.84185,-13.66555 c -4.31301,-7.516046 -7.89196,-13.865226 -7.95321,-14.109276 -0.17796,-0.70902 0.37598,-1.3784 1.1407,-1.3784 0.61924,0 3.3305,1.52505 24.55415,13.811356 1.84853,1.0701 3.41743,1.88043 3.48644,1.80072 0.069,-0.0797 0.32047,-0.88793 0.55878,-1.79605 0.37148,-1.41558 0.39565,-1.68653 0.16942,-1.89938 -0.14512,-0.13655 -6.59133,-3.898546 -14.3249,-8.359996 -12.46345,-7.19009 -23.96659,-13.831927 -27.14945,-15.675908 -0.59932,-0.347211 -1.05136,-0.567594 -1.00455,-0.489743 0.12146,0.20202 11.14562,19.408441 18.39998,32.056667 5.98811,10.44048 6.16721,10.72652 6.64168,10.60766 0.26819,-0.0672 1.12553,-0.29764 1.90521,-0.51212 z m 76.337918,-17.54445 c 5.74749,-9.950526 11.29479,-19.555647 12.32732,-21.344706 l 1.87732,-3.252837 -0.70353,0.41566 c -0.38693,0.228611 -9.98381,5.733552 -21.32638,12.233197 -11.34257,6.49965 -20.68317,11.869396 -20.75689,11.932776 -0.0737,0.0634 0.0873,0.96696 0.35776,2.00795 l 0.4918,1.8927 6.86023,-3.93749 c 3.77314,-2.165616 9.92524,-5.697296 13.67135,-7.848176 3.7461,-2.15089 7.01591,-3.9621 7.26623,-4.02493 0.27795,-0.0698 0.63708,0.005 0.92247,0.19198 1.00919,0.66124 1.02288,0.63311 -7.40814,15.224536 -4.33151,7.49649 -7.82598,13.67947 -7.76548,13.73997 0.19009,0.19009 2.96788,0.92938 3.36098,0.89451 0.28915,-0.0257 2.76661,-4.17388 10.82496,-18.12514 z m -70.672848,16.02537 1.08328,-0.30667 -0.55437,-0.96944 c -5.07652,-8.87744 -6.01712,-10.59853 -6.01752,-11.01069 -7.5e-4,-0.74629 0.42929,-1.18945 1.14931,-1.18444 0.47198,0.003 2.03321,0.81702 6.18687,3.22467 3.05557,1.77114 5.63957,3.22027 5.74223,3.22027 0.24309,0 0.85919,-2.4497 0.66327,-2.63724 -0.29189,-0.27939 -23.20062,-13.464136 -23.27133,-13.393426 -0.0395,0.0395 2.14659,3.93677 4.85802,8.660566 2.71143,4.72379 5.73641,10.00005 6.72219,11.72501 1.2671,2.21723 1.87473,3.1131 2.07354,3.05717 0.15467,-0.0435 0.7687,-0.21712 1.36451,-0.38578 z m 60.514518,-11.24088 c 3.6933,-6.391026 6.68356,-11.651576 6.64503,-11.690106 -0.0508,-0.0508 -23.17974,13.112196 -23.47852,13.361886 -0.0503,0.042 0.65877,2.56434 0.74512,2.65069 0.0316,0.0316 2.62073,-1.41399 5.75366,-3.2124 3.4502,-1.98054 5.89224,-3.26983 6.19334,-3.26983 0.27342,0 0.65667,0.11666 0.85168,0.25925 0.77442,0.56628 0.4963,1.25047 -2.87777,7.07948 -1.76936,3.05673 -3.21701,5.64189 -3.21701,5.74482 0,0.19243 1.95365,0.78075 2.4127,0.72657 0.14118,-0.0167 3.27847,-5.25933 6.97177,-11.65036 z m -55.106138,9.80769 c 0.8533,-0.20645 0.87215,-0.22745 1.17175,-1.30506 0.16748,-0.60237 0.3045,-1.20685 0.3045,-1.34329 0,-0.23077 -7.25785,-4.56227 -7.40091,-4.41687 -0.0513,0.0521 3.4219,6.20385 4.09524,7.25347 0.0965,0.15035 0.32118,0.20483 0.56149,0.13612 0.22038,-0.063 0.79094,-0.20897 1.26793,-0.32437 z m 45.145208,-3.25839 c 1.16668,-2.01555 2.09003,-3.69315 2.0519,-3.72799 -0.0788,-0.072 -7.05042,3.89356 -7.3212,4.16434 -0.10991,0.10991 -0.0532,0.63762 0.15075,1.4031 l 0.32694,1.22693 0.94984,0.27731 c 1.72128,0.50255 1.50796,0.68821 3.84177,-3.34369 z m -37.323408,-0.91403 0.88825,-0.45011 5.39737,-19.936396 c 2.968558,-10.96502 5.530158,-20.08404 5.692448,-20.26449 0.16389,-0.182235 0.56095,-0.328091 0.89314,-0.328091 0.33309,0 0.72777,0.145367 0.8908,0.328091 0.16101,0.18045 2.58186,8.891265 5.37969,19.35737 2.79782,10.466096 5.20945,19.461666 5.35918,19.990146 0.2223,0.78467 0.38031,1.00566 0.86164,1.20503 0.32418,0.13428 1.38459,0.77579 2.35646,1.42557 1.14341,0.76448 1.73354,1.06702 1.67212,0.85726 -0.0522,-0.17829 -3.68933,-13.780576 -8.0825,-30.227309 -4.39317,-16.446731 -8.08907,-30.220363 -8.21311,-30.608069 -0.2158,-0.674515 -0.56329,0.542557 -8.056088,28.215823 -4.30681,15.906409 -8.07293,29.819335 -8.36915,30.917615 l -0.53859,1.99688 1.49005,-1.01461 c 0.81953,-0.55803 1.88976,-1.21715 2.37829,-1.46471 z m 5.54217,-2.22493 1.48255,-0.41796 2.304818,-8.50375 c 1.33476,-4.924656 2.43925,-8.652286 2.62421,-8.856666 0.40563,-0.44821 1.42017,-0.46219 1.80186,-0.0248 0.15749,0.18045 1.31277,4.16299 2.5673,8.850086 1.25454,4.6871 2.2988,8.53732 2.32058,8.55606 0.13337,0.11467 2.86336,0.78356 2.92922,0.7177 0.0443,-0.0443 -1.89535,-7.46122 -4.31044,-16.481936 -3.02924,-11.314696 -4.43154,-16.27121 -4.52157,-15.981822 -0.21386,0.687347 -8.774818,32.372448 -8.774818,32.476598 0,0.12122 -0.14671,0.15226 1.57629,-0.33348 z m 10.162688,-1.30492 c -1.38022,-5.15464 -2.90488,-10.704596 -2.91466,-10.609696 -0.0166,0.16082 -2.80698,10.490006 -2.91684,10.797176 -0.0648,0.18124 0.5993,0.23435 2.93032,0.23435 h 3.01413 z M 96.714052,73.218383 c 3.740958,-13.841617 6.854288,-25.368009 6.918518,-25.614205 l 0.11677,-0.447628 -2.32525,0.125292 c -14.257108,0.768217 -26.520618,4.183468 -38.536008,10.731856 -6.10083,3.324949 -12.6176,7.973861 -17.18634,12.260329 -1.32949,1.247351 -1.60432,1.594111 -1.40611,1.774121 0.1355,0.123058 4.12722,2.461732 8.87048,5.197055 12.72693,7.339316 24.96609,14.410681 31.12177,17.981101 2.99031,1.73444 5.47912,3.15468 5.53068,3.15609 0.0516,0.002 3.15452,-11.32239 6.89549,-25.164011 z m -22.08142,13.434691 c -6.8571,-3.972111 -15.33591,-8.876428 -18.8418,-10.898481 -8.34966,-4.815745 -7.78044,-4.442245 -7.78044,-5.105268 0,-0.486514 0.34084,-0.824657 2.8876,-2.864776 12.9159,-10.346481 27.8967,-16.579406 44.28273,-18.424321 1.45403,-0.163711 3.14135,-0.271979 3.74961,-0.240597 l 1.105918,0.05706 0.0493,0.656182 c 0.0305,0.40588 -2.190308,8.91614 -5.821908,22.310186 l -5.87116,21.654005 -0.64617,0.039 c -0.54346,0.0328 -2.62795,-1.10896 -13.11363,-7.183 z m 12.07076,3.34751 c 0.0535,-0.18045 2.34092,-8.63817 5.08316,-18.794929 2.74224,-10.156759 5.06484,-18.706944 5.16134,-19.000411 l 0.17546,-0.533576 -1.16828,0.121991 c -3.66934,0.383151 -10.03026,1.646101 -13.69725,2.719568 -8.70459,2.548167 -15.75751,5.786236 -23.09234,10.601939 -2.49215,1.636232 -7.0286,4.977835 -7.0938,5.225388 -0.0295,0.111966 34.14885,19.95745 34.40646,19.97794 0.0704,0.006 0.17175,-0.13746 0.22525,-0.31791 z m 44.604848,2.13352 c 6.00112,-3.44093 13.7374,-7.878842 17.19173,-9.862032 3.45433,-1.983188 8.72722,-5.001846 11.71754,-6.708129 2.99031,-1.706282 5.54856,-3.204277 5.68499,-3.328881 0.20063,-0.183232 -0.12412,-0.572642 -1.69839,-2.036565 -4.74571,-4.413081 -10.96936,-8.852662 -17.07505,-12.180322 -11.99521,-6.537502 -24.16227,-9.934601 -38.44201,-10.733185 -2.11798,-0.118447 -2.21782,-0.107693 -2.11228,0.227506 0.11898,0.377878 4.84795,18.025946 10.16684,37.941681 3.73323,13.978487 3.446,12.936157 3.56478,12.936157 0.0499,0 5.00073,-2.8153 11.00185,-6.25623 z m -9.49954,1.79668 c -0.0501,-0.0811 -1.23009,-4.4049 -2.62212,-9.60838 -1.39203,-5.203483 -4.01831,-15.016437 -5.83617,-21.806564 -1.81787,-6.790128 -3.27935,-12.569216 -3.24772,-12.842419 0.0533,-0.460158 0.13175,-0.500965 1.06583,-0.554233 0.55457,-0.03163 2.19972,0.07655 3.65587,0.24038 17.05893,1.919335 32.70074,8.648545 45.91781,19.754149 1.29342,1.086801 1.45563,1.29335 1.4061,1.790492 -0.0515,0.516944 -0.3339,0.721616 -3.52438,2.554378 -4.5455,2.611146 -12.48383,7.16629 -25.42155,14.587287 -5.78426,3.31783 -10.69362,6.03241 -10.90968,6.03241 -0.21605,0 -0.43385,-0.0664 -0.48399,-0.1475 z m 7.97736,-7.03574 c 8.90272,-5.118084 19.14101,-10.995262 24.02126,-13.789142 l 4.46368,-2.555401 -0.52659,-0.429473 c -11.253,-9.177594 -25.18718,-15.412586 -39.61629,-17.726722 -3.84655,-0.616908 -4.87449,-0.731271 -4.87449,-0.542304 0,0.164438 10.05942,37.819152 10.22159,38.261772 0.0511,0.13959 0.21311,0.20771 0.35991,0.15138 0.1468,-0.0563 2.82472,-1.57288 5.95093,-3.37011 z"
       id="path4758"
       inkscape:connector-curvature="0" />
  </g>
</svg>
