<?xml version="1.0" encoding="UTF-8" standalone="no"?>
<!-- Created with Inkscape (http://www.inkscape.org/) -->
<svg xmlns:dc="http://purl.org/dc/elements/1.1/" xmlns:cc="http://creativecommons.org/ns#" xmlns:rdf="http://www.w3.org/1999/02/22-rdf-syntax-ns#" xmlns:svg="http://www.w3.org/2000/svg" xmlns="http://www.w3.org/2000/svg" xmlns:sodipodi="http://sodipodi.sourceforge.net/DTD/sodipodi-0.dtd" xmlns:inkscape="http://www.inkscape.org/namespaces/inkscape" width="800" height="800" id="svg2" version="1.1" inkscape:version="0.47pre4 r22446" sodipodi:docname="Ishtar-star-symbol.svg">
  <title id="title3936">Ishtar Goddess star-symbol</title>
  <defs id="defs4"/>
  <sodipodi:namedview id="base" pagecolor="#ffffff" bordercolor="#666666" borderopacity="1.0" inkscape:pageopacity="0.0" inkscape:pageshadow="2" inkscape:zoom="0.96148896" inkscape:cx="417.68093" inkscape:cy="399.47995" inkscape:document-units="px" inkscape:current-layer="layer4" showgrid="false" inkscape:window-width="1680" inkscape:window-height="1028" inkscape:window-x="-4" inkscape:window-y="-3" inkscape:window-maximized="1"/>
  <metadata id="metadata7">
    <rdf:RDF>
      <cc:Work rdf:about="">
        <dc:format>image/svg+xml</dc:format>
        <dc:type rdf:resource="http://purl.org/dc/dcmitype/StillImage"/>
        <dc:title>Ishtar Goddess star-symbol</dc:title>
        <dc:date>07 dec 2009</dc:date>
        <dc:creator>
          <cc:Agent>
            <dc:title>Raphael</dc:title>
          </cc:Agent>
        </dc:creator>
        <dc:publisher>
          <cc:Agent>
            <dc:title>Raphael</dc:title>
          </cc:Agent>
        </dc:publisher>
        <dc:rights>
          <cc:Agent>
            <dc:title>Ishtar Goddess – Queen of Heaven</dc:title>
          </cc:Agent>
        </dc:rights>
        <dc:language>en</dc:language>
        <dc:subject>
          <rdf:Bag>
            <rdf:li>Ishtar Inanna Inana</rdf:li>
          </rdf:Bag>
        </dc:subject>
        <dc:coverage>Cult of Ishtar Goddess</dc:coverage>
        <dc:description>Ancient Mesopotamian eight-pointed star symbol of the Goddess Ishtar (Inanna), representing the planet Venus as morning or evening star.
No encircled version.</dc:description>
        <cc:license rdf:resource="http://creativecommons.org/licenses/publicdomain/"/>
      </cc:Work>
      <cc:License rdf:about="http://creativecommons.org/licenses/publicdomain/">
        <cc:permits rdf:resource="http://creativecommons.org/ns#Reproduction"/>
        <cc:permits rdf:resource="http://creativecommons.org/ns#Distribution"/>
        <cc:permits rdf:resource="http://creativecommons.org/ns#DerivativeWorks"/>
      </cc:License>
    </rdf:RDF>
  </metadata>
  <g inkscape:groupmode="layer" id="layer2" inkscape:label="Star background" style="display:inline">
    <path style="opacity:0.98999999;fill:#ffd700;fill-opacity:1;stroke:#120a8f;stroke-width:6.62400007;stroke-linejoin:round;stroke-miterlimit:4;stroke-opacity:1;stroke-dasharray:none;display:inline" d="M 400.5625,11.15625 336.78125,246.71875 125.4375,124.625 246.90625,336.34375 11.15625,399.4375 246.71875,463.21875 124.625,674.5625 336.34375,553.09375 399.4375,788.84375 463.21875,553.28125 674.5625,675.375 553.09375,463.65625 788.84375,400.5625 553.28125,336.78125 675.375,125.4375 463.65625,246.90625 400.5625,11.15625 z" id="path3744-7"/>
  </g>
  <g inkscape:label="Lines" inkscape:groupmode="layer" id="layer1" transform="translate(0,-252.36218)" style="display:inline">
    <path id="path2829" style="opacity:0.98999999;fill:none;stroke:#120a8f;stroke-width:6.26465702;stroke-linecap:round;stroke-linejoin:round;stroke-miterlimit:4;stroke-opacity:1;stroke-dasharray:none;display:inline" d="m 523.64159,703.79314 -57.12136,15.28613 -15.45336,57.082 170.67554,98.59265 -98.10082,-170.96078 z m -247.44067,-0.36397 -98.59264,170.68538 170.9608,-98.10083 -15.28614,-57.12135 -57.08202,-15.4632 z m 346.19071,-272.80938 -170.9608,98.10081 15.28613,57.12137 57.07218,15.45337 98.60249,-170.67555 z m -444.14397,-0.64921 98.10081,170.9608 57.12137,-15.28614 15.45336,-57.07218 -170.67554,-98.60248 z m 322.57293,279.93109 -34.30036,9.17758 -9.27596,34.27085 102.47812,59.19691 -58.9018,-102.64534 z m -201.8085,-0.2951 -59.1969,102.47812 102.64534,-58.90181 -9.17759,-34.29051 -34.27085,-9.2858 z m 261.17262,-216.95695 -102.64534,58.9018 9.17759,34.29053 34.27086,9.27595 59.19689,-102.46828 z m -319.9072,-0.47215 58.9018,102.64534 34.30036,-9.17762 9.27596,-34.27085 -102.47812,-59.1969 z m 241.48951,222.81958 -15.24679,4.08222 -4.12146,15.22712 45.54364,26.313 -26.17539,-45.62234 z m -163.72103,-0.22624 -26.30318,45.5338 45.62234,-26.17529 -4.08211,-15.23696 -15.23705,-4.12155 z m 190.2112,-170.35092 -45.62234,26.17528 4.08211,15.2468 15.22712,4.12156 26.31311,-45.54364 z m -216.1996,-0.31479 26.17529,45.62233 15.24679,-4.0822 4.12156,-15.22712 -45.54364,-26.31301 z M 400,560.97985 c 50.46967,0 91.38239,40.91265 91.38239,91.38239 0,50.46974 -40.91272,91.38242 -91.38239,91.38242 -50.46982,0 -91.39231,-40.91268 -91.39231,-91.38242 0,-50.46973 40.92249,-91.38239 91.39231,-91.38239 z m 0.45249,-222.672 -66.97769,247.33247 -247.529205,66.25961 247.332475,66.98752 66.25961,247.52906 66.97768,-247.34215 247.53904,-66.25963 -247.34231,-66.97768 -66.2596,-247.5292 z m -39.17447,396.84446 38.39241,143.41824 38.81537,-143.30021 c -11.69694,5.439 -24.73153,8.4792 -38.48093,8.4792 -13.8434,0 -26.96847,-3.08799 -38.72685,-8.59723 z M 482.90807,613.88623 c 5.43804,11.696 8.47919,24.73288 8.47919,38.48093 0,13.8434 -3.08793,26.95862 -8.59722,38.71701 L 626.20825,652.69178 482.90807,613.88623 z m -165.6982,-0.24594 -143.41821,38.39242 143.31001,38.81538 c -5.43967,-11.69751 -8.48903,-24.73071 -8.48903,-38.48093 0,-13.84399 3.08761,-26.96809 8.59723,-38.72685 z M 400.32948,426.15395 361.5141,569.46396 c 11.69747,-5.43964 24.74052,-8.47919 38.49077,-8.47919 13.84256,0 26.95916,3.07876 38.71702,8.58739 L 400.32948,426.15395 z m -17.44036,315.98731 16.88961,63.09216 17.0764,-63.043 c -5.46318,1.01873 -11.09163,1.5542 -16.85026,1.5542 -5.84852,0 -11.57276,-0.55336 -17.11575,-1.60336 z M 489.83307,635.51208 c 1.01805,5.4611 1.55419,11.0939 1.55419,16.85016 0,5.84851 -0.55325,11.56288 -1.60328,17.10593 l 63.09221,-16.88954 -63.04312,-17.06656 z m -179.61705,-0.26559 -63.09221,16.8895 63.04303,17.07642 c -1.01873,-5.46319 -1.5542,-11.09162 -1.5542,-16.85018 0,-5.8499 0.55283,-11.57146 1.60338,-17.11575 z m 90.00525,-135.75546 -17.06647,63.04301 c 5.46028,-1.01764 11.0947,-1.55419 16.85007,-1.55419 5.84878,0 11.56268,0.55325 17.10601,1.60338 l -16.88961,-63.0922 z m 91.16223,152.87121 c 0,50.46974 -40.91383,91.38355 -91.3835,91.38355 -50.46982,0 -91.38358,-40.91381 -91.38358,-91.38355 0,-50.46973 40.91376,-91.38353 91.38358,-91.38353 50.46967,0 91.3835,40.91379 91.3835,91.38353 z m -34.23417,0 c 0,31.56266 -25.58663,57.14926 -57.14933,57.14926 -31.56278,0 -57.14933,-25.5866 -57.14933,-57.14926 0,-31.56268 25.58655,-57.14929 57.14933,-57.14929 31.5627,0 57.14933,25.5866 57.14933,57.14929 z"/>
  </g>
  <g inkscape:groupmode="layer" id="layer4" inkscape:label="Small center circle" style="display:inline">
    <path style="fill:#120a8f;fill-opacity:1;stroke:none;display:inline" d="m 417.48018,400 c 0,9.654 -7.82616,17.48019 -17.48018,17.48019 -9.65402,0 -17.48018,-7.82619 -17.48018,-17.48019 0,-9.654 7.82616,-17.48019 17.48018,-17.48019 9.65402,0 17.48018,7.82619 17.48018,17.48019 z" id="path3754"/>
  </g>
</svg>